<?xml version="1.0" standalone="no"?>
<!DOCTYPE svg PUBLIC "-//W3C//DTD SVG 20010904//EN"
 "http://www.w3.org/TR/2001/REC-SVG-20010904/DTD/svg10.dtd">
<svg version="1.0" xmlns="http://www.w3.org/2000/svg"
 width="696.000000pt" height="696.000000pt" viewBox="0 0 696.000000 696.000000"
 preserveAspectRatio="xMidYMid meet">
<metadata>
Created by potrace 1.14, written by Peter Selinger 2001-2017
</metadata>
<g transform="translate(0.000000,696.000000) scale(0.100000,-0.100000)"
fill="#000000" stroke="none">
<path d="M988 6535 c-2 -2 -19 -5 -38 -8 -123 -20 -192 -42 -310 -100 -47 -22
-87 -44 -90 -47 -3 -3 -26 -20 -53 -38 -55 -37 -62 -42 -125 -103 -67 -66
-115 -120 -138 -154 -10 -17 -21 -32 -25 -35 -6 -5 -79 -129 -79 -134 0 -2 -9
-24 -20 -50 -12 -25 -21 -48 -20 -51 0 -3 -7 -19 -15 -35 -8 -16 -15 -32 -15
-35 1 -3 -3 -29 -9 -58 -20 -98 -21 -112 -21 -187 1 -112 6 -141 43 -225 24
-55 22 -52 73 -115 72 -89 109 -134 127 -152 9 -10 17 -22 17 -27 0 -5 4 -11
9 -13 27 -10 227 -349 213 -362 -3 -3 -1 -6 4 -6 6 0 16 -17 23 -37 8 -21 23
-58 33 -83 11 -25 24 -54 29 -65 17 -40 77 -232 85 -272 1 -7 9 -40 18 -75 8
-35 17 -74 20 -88 3 -14 7 -34 9 -45 3 -11 8 -45 12 -75 4 -30 9 -64 11 -75 2
-11 6 -47 9 -80 3 -33 7 -80 10 -105 9 -88 27 -414 26 -475 -3 -97 -32 -237
-67 -312 -8 -17 -14 -36 -14 -42 0 -6 -4 -11 -10 -11 -5 0 -10 -5 -10 -12 0
-28 -91 -143 -179 -224 -167 -155 -265 -258 -304 -317 -97 -145 -183 -365
-205 -522 -20 -146 0 -397 41 -495 5 -14 11 -30 12 -35 7 -29 81 -166 122
-224 52 -73 178 -204 233 -241 19 -13 37 -27 40 -30 36 -42 313 -173 415 -196
187 -43 359 -53 488 -29 37 7 70 13 72 14 3 1 10 3 17 5 7 3 38 12 68 22 134
42 281 136 408 262 92 91 152 158 152 167 0 3 9 16 20 28 25 26 132 188 180
272 54 92 180 212 276 260 43 22 82 44 85 48 3 5 10 8 15 8 5 0 37 16 72 36
83 49 210 174 271 268 53 81 110 215 116 274 2 20 5 37 6 39 3 5 7 43 8 99 2
81 10 61 16 -38 3 -46 8 -118 11 -159 4 -41 8 -91 9 -110 14 -177 42 -342 79
-467 13 -43 30 -91 37 -108 7 -16 13 -32 13 -35 1 -3 14 -32 30 -65 105 -214
299 -403 514 -502 90 -42 229 -87 295 -97 27 -4 59 -10 70 -12 135 -28 366
-21 514 17 43 11 90 23 106 26 15 3 27 9 27 14 0 5 8 9 17 9 39 0 276 133 350
196 11 11 40 34 63 53 35 29 95 89 205 206 11 11 41 50 67 85 26 36 51 70 56
75 4 6 11 17 15 25 4 8 16 29 26 45 51 79 167 325 154 325 -3 0 0 6 7 14 6 8
18 37 25 63 40 144 74 264 74 268 0 3 3 20 6 38 3 17 7 46 10 62 18 108 32
248 31 307 -1 26 1 48 4 48 3 0 4 48 4 107 -2 143 -17 418 -24 418 0 0 -3 29
-6 65 -2 36 -7 76 -9 90 -3 14 -8 41 -11 60 -25 160 -100 466 -135 555 -4 11
-17 47 -29 80 -11 33 -24 69 -29 80 -65 152 -104 235 -144 310 -53 99 -198
320 -246 375 -17 19 -45 52 -63 73 -50 59 -158 166 -223 222 -32 28 -64 56
-71 63 -7 6 -17 12 -22 12 -6 0 -12 4 -14 9 -1 5 -50 40 -108 78 -135 90 -333
189 -412 208 -9 2 -25 8 -35 13 -10 6 -21 10 -25 11 -5 1 -9 1 -10 2 -7 2 -38
9 -88 19 -160 33 -364 33 -495 0 -22 -6 -48 -13 -58 -15 -51 -12 -174 -57
-212 -78 -11 -6 -23 -11 -26 -12 -11 0 -84 -40 -87 -47 -2 -5 -8 -8 -13 -8
-19 0 -155 -99 -215 -157 -160 -153 -247 -342 -247 -538 0 -49 2 -103 6 -120
19 -88 37 -148 67 -220 73 -172 129 -349 166 -520 23 -107 47 -327 47 -440 0
-66 -12 -249 -18 -280 -3 -11 -7 -38 -9 -60 -3 -22 -7 -53 -10 -70 -12 -81
-19 -215 -20 -355 0 -85 -2 -141 -4 -125 -16 139 -75 262 -166 349 -199 187
-488 228 -707 100 -59 -35 -171 -138 -219 -203 -14 -18 -34 -45 -46 -59 -11
-15 -46 -66 -77 -113 -69 -104 -99 -122 -169 -104 -25 6 -67 27 -91 46 -43 33
-91 90 -87 105 1 4 -3 10 -9 13 -13 8 -21 90 -11 116 4 11 40 54 80 95 41 41
109 120 153 175 43 55 86 109 95 121 35 42 132 183 132 189 0 3 5 11 10 18 49
58 194 326 258 477 40 96 108 288 116 332 2 12 9 43 16 68 14 51 18 72 25 115
2 17 6 40 9 52 19 86 26 241 26 558 1 356 -8 485 -39 593 -5 17 -8 32 -5 32 3
0 0 8 -5 18 -6 11 -12 30 -14 43 -11 59 -88 259 -129 333 -40 74 -55 99 -98
162 -26 39 -58 84 -71 99 -40 47 -149 158 -149 152 0 -4 -10 4 -22 16 -81 81
-306 203 -468 255 -94 30 -109 34 -225 52 -52 9 -249 12 -257 5z m3397 -2562
c54 -16 187 -127 268 -223 135 -160 228 -403 254 -668 21 -221 -8 -449 -86
-661 -55 -148 -118 -239 -202 -291 -41 -25 -55 -28 -110 -25 -35 1 -71 5 -79
8 -8 3 -25 8 -37 12 -13 4 -23 11 -23 16 0 5 -6 9 -13 9 -15 0 -81 62 -128
120 -66 84 -108 211 -102 310 4 71 3 310 -1 365 -10 113 -16 163 -26 215 -6
30 -13 66 -15 80 -2 14 -8 47 -14 74 -9 47 -7 214 4 266 2 13 7 42 11 65 8 53
8 51 28 120 53 178 144 247 271 208z"/>
<path d="M6553 6389 c-30 -48 -159 -319 -168 -349 -3 -14 -10 -34 -15 -45 -41
-92 -50 -115 -50 -124 0 -6 -4 -11 -9 -11 -5 0 -12 -8 -15 -18 -7 -22 -91
-109 -165 -172 -29 -25 -58 -50 -65 -55 -6 -6 -42 -33 -80 -60 -37 -27 -77
-62 -87 -79 -17 -28 -17 -39 -6 -91 5 -23 23 -38 105 -95 114 -78 114 -78 145
-126 42 -67 50 -137 62 -514 3 -96 8 -187 10 -202 19 -110 84 -127 168 -43 43
42 45 46 67 161 12 66 30 142 38 169 9 28 16 52 17 55 11 52 92 218 120 246 6
7 23 25 36 42 36 42 103 88 184 126 80 37 115 74 115 119 0 24 -15 45 -77 106
-85 84 -113 116 -113 131 0 6 -4 10 -10 10 -5 0 -10 6 -10 14 0 8 -9 30 -19
48 -11 18 -25 53 -32 78 -7 25 -14 50 -15 55 -11 40 -16 82 -19 165 -3 92 -12
188 -19 226 -3 11 -9 39 -15 64 -5 25 -12 56 -15 70 -2 14 -13 49 -23 79 l-19
54 -21 -34z"/>
</g>
</svg>
