<?xml version="1.0" encoding="UTF-8"?>
<svg id="Calque_2" data-name="Calque 2" xmlns="http://www.w3.org/2000/svg" viewBox="0 0 174.19 153.12">
  <defs>
    <style>
      .cls-1, .cls-2 {
        stroke-width: 0px;
      }

      .cls-2 {
        fill: #fff;
      }
    </style>
  </defs>
  <g id="Calque_1-2" data-name="Calque 1">
    <g>
      <path class="cls-2" d="M21.75,1.72C9.23,4.82.86,17.32,1.74,27.44c.64,7.38,5.63,7,11.89,19.97,5.74,11.91,6.57,22.67,6.96,28.46.54,8.07.81,12.1-.87,16.69-3.7,10.08-10.79,9.81-15.66,20.25-1.08,2.31-5.37,11.51-1.45,21.62,3.74,9.63,12.54,13.89,14.5,14.78,1.7.77,10.91,4.95,20.58,1.64,8.4-2.87,13.46-10.13,15.95-13.68,2.65-3.79,2.77-5.38,5.8-8.21,4.35-4.07,6.8-3.31,11.02-7.11,1.33-1.2,5.66-5.22,6.67-11.49.32-2.02,1.24-8.22-3.48-12.86-3.75-3.69-9.73-5.09-14.21-3.56-4.5,1.54-7.82,6.17-9.28,8.21-2.06,2.87-2.59,4.76-4.64,5.2-2.34.5-4.85-1.3-6.09-2.74-.37-.43-2.12-2.47-1.74-4.93.28-1.83,1.55-2.63,3.77-4.93,1.11-1.15,2.48-2.96,5.22-6.57,2.77-3.65,4.49-6.69,5.51-8.48,1.74-3.07,4.96-8.85,6.96-16.69,1.76-6.94,1.75-12.3,1.74-18.61-.01-7.44-.02-11.15-1.16-15.6-.97-3.78-4.28-16.69-16.81-23.53-2.58-1.41-11.09-6.05-21.16-3.56Z"/>
      <path class="cls-1" d="M29.9,153.12c-5.54,0-10.34-1.7-13.21-3-3.31-1.5-11.4-6-15.01-15.32-1.86-4.79-3.11-12.57,1.48-22.4,2.46-5.27,5.43-7.88,8.29-10.39,2.84-2.49,5.52-4.85,7.33-9.78,1.61-4.39,1.34-8.36.81-16.28-.35-5.23-1.08-16.11-6.86-28.09-2.96-6.13-5.57-9.16-7.67-11.59-2.29-2.66-3.95-4.58-4.31-8.73C-.14,17.3,7.99,4.1,21.51.75c6.93-1.72,14.29-.49,21.88,3.65,8.57,4.68,14.4,12.81,17.3,24.16,1.17,4.57,1.18,8.33,1.19,15.84.01,6.34.02,11.8-1.77,18.85-2.07,8.14-5.44,14.08-7.06,16.94-1.03,1.82-2.76,4.88-5.58,8.59-2.76,3.63-4.14,5.46-5.3,6.66-.5.52-.95.96-1.35,1.35-1.41,1.38-1.98,1.98-2.15,3.03-.2,1.29.33,2.75,1.51,4.12,1.03,1.19,3.24,2.81,5.12,2.41,1.03-.22,1.54-.97,2.6-2.64.4-.64.86-1.36,1.44-2.16,1.49-2.07,4.97-6.92,9.76-8.57,4.89-1.68,11.3-.09,15.23,3.79,3.42,3.36,4.68,7.98,3.76,13.73-.49,3.08-2.1,7.67-6.99,12.08-2.16,1.95-3.9,2.77-5.57,3.56-1.71.8-3.31,1.56-5.43,3.54-1.82,1.7-2.51,2.9-3.47,4.55-.57.98-1.21,2.08-2.19,3.5-2.51,3.59-7.73,11.08-16.44,14.06-2.78.95-5.53,1.32-8.11,1.32ZM21.99,2.69C12.08,5.14,1.74,15.88,2.74,27.36c.31,3.5,1.63,5.04,3.84,7.6,2.06,2.39,4.89,5.66,7.95,12.03,5.94,12.33,6.69,23.47,7.05,28.82.55,8.2.83,12.31-.93,17.1-1.99,5.41-4.99,8.04-7.89,10.59-2.71,2.38-5.52,4.84-7.8,9.74-4.29,9.19-3.14,16.4-1.42,20.83,3.35,8.63,10.89,12.83,13.98,14.23,3.94,1.79,11.75,4.38,19.85,1.61,8.09-2.77,13.06-9.89,15.45-13.31.94-1.34,1.56-2.41,2.1-3.35,1-1.74,1.8-3.11,3.83-5.01,2.35-2.2,4.18-3.06,5.95-3.89,1.61-.76,3.14-1.48,5.08-3.23,4.45-4.01,5.91-8.15,6.35-10.91.81-5.07-.26-9.1-3.19-11.99-3.42-3.37-8.97-4.77-13.18-3.32-4.19,1.44-7.41,5.93-8.79,7.85-.54.76-.98,1.45-1.37,2.07-1.1,1.74-1.97,3.12-3.87,3.53-2.96.63-5.82-1.63-7.05-3.06-1.56-1.82-2.26-3.85-1.97-5.73.27-1.75,1.25-2.71,2.72-4.15.39-.38.83-.81,1.31-1.31,1.07-1.11,2.43-2.91,5.14-6.48,2.74-3.61,4.43-6.59,5.43-8.37,1.58-2.78,4.86-8.57,6.86-16.44,1.73-6.81,1.72-12.16,1.71-18.35-.01-7.35-.02-11.04-1.13-15.36-2.76-10.8-8.26-18.5-16.32-22.9-2.66-1.45-10.75-5.86-20.45-3.46h0Z"/>
      <path class="cls-2" d="M147.84,88.84c-.46-5.69-2.97-29.34-19.21-45.64-3.27-3.28-18.02-17.23-35.08-12.73-1.9.5-16.98,4.47-19.57,17.39-1.84,9.17,4.66,12.66,6.57,29.51,1.48,13.05-2.01,14.63-.85,31.18.75,10.7,1.28,18.25,5.43,25.14,8.34,13.85,24.26,13.35,26.9,13.26,17.38-.55,27.3-16.65,28.6-18.83,9.14-15.37,7.73-32.92,7.21-39.28ZM122.9,99.25c-.81,3.08-2.91,11-8.12,12.6-4.85,1.49-10.13-3.19-11.93-8.55-1.31-3.92.2-5.34-.66-14.4-.65-6.85-1.63-7.21-1.49-11.48.04-1.2.44-11.08,4.85-13.83,5.02-3.12,11.54,5.29,12.39,6.4,5.55,7.34,7.59,19.33,4.97,29.26Z"/>
      <path class="cls-1" d="M110.92,147.97c-6.32,0-19.32-1.6-26.65-13.77-4.28-7.1-4.82-14.85-5.57-25.59-.59-8.47.02-13.13.57-17.25.54-4.06,1-7.56.29-13.89-.9-8.01-2.87-12.97-4.46-16.96-1.74-4.38-3.11-7.83-2.1-12.86,2.52-12.55,16.17-17.07,20.29-18.16,16.98-4.48,31.88,8.81,36.05,12.99,15.48,15.54,18.79,37.53,19.5,46.27h0c.53,6.63,1.95,24.22-7.35,39.87-1.86,3.13-12.03,18.78-29.42,19.32-.35.01-.73.02-1.14.02ZM100.33,30.59c-2.13,0-4.31.26-6.53.84-3.84,1.01-16.55,5.2-18.84,16.62-.89,4.45.32,7.5,2,11.73,1.62,4.1,3.65,9.2,4.58,17.47.74,6.57.24,10.37-.29,14.38-.53,4.02-1.14,8.57-.56,16.84.73,10.46,1.26,18.01,5.29,24.7,7.26,12.04,20.62,12.95,26.01,12.78,16.36-.51,26-15.37,27.77-18.35,8.98-15.1,7.6-32.23,7.08-38.68l1-.08-1,.08c-.69-8.51-3.9-29.95-18.92-45.02-3.42-3.43-14.42-13.31-27.59-13.31ZM112.89,113.14c-4.75,0-9.31-4.49-11-9.52-.74-2.2-.66-3.72-.54-5.83.1-1.89.24-4.48-.17-8.8-.3-3.14-.67-4.89-.96-6.3-.34-1.63-.61-2.91-.54-5.31.08-2.71.72-11.78,5.32-14.64,5.62-3.5,12.41,4.92,13.71,6.65,5.71,7.55,7.83,19.94,5.14,30.11h0c-.83,3.16-3.04,11.54-8.79,13.3-.72.22-1.45.33-2.17.33ZM107.96,63.91c-.66,0-1.3.16-1.9.54-3.93,2.45-4.34,11.94-4.38,13.01-.07,2.15.16,3.22.49,4.83.3,1.45.68,3.27.99,6.52.42,4.47.28,7.14.17,9.1-.11,2.02-.17,3.24.44,5.08,1.61,4.8,6.39,9.23,10.69,7.91,4.69-1.44,6.69-9.04,7.45-11.9h0c2.54-9.62.57-21.3-4.8-28.4-.59-.78-5.19-6.69-9.16-6.69Z"/>
      <path class="cls-2" d="M164.29,5.36c.47,1.57,1.1,4.01,1.39,7.06.31,3.17-.09,3.37.28,5.59.21,1.25.91,5.48,4.03,9.01,1.88,2.13,3.3,2.48,3.2,3.61-.13,1.51-2.69,1.58-5.54,3.72-3.42,2.57-4.8,6.27-5.7,8.72,0,0-1.02,2.75-2,8.7h0s-1.77,2.21-2.66,2.01c-.97-.23-.89-3.41-1.03-7.8-.21-6.54-.31-9.81-1.3-11.54-2.4-4.2-6.91-4.43-6.72-6.75.1-1.3,1.53-1.45,5.42-4.79,2.15-1.84,3.4-2.92,4.61-4.64,1.59-2.26,1.55-3.41,3.45-7.71,1.01-2.28,1.95-4.07,2.57-5.19Z"/>
      <path class="cls-1" d="M157.39,54.8c-.11,0-.22-.01-.33-.04-1.58-.37-1.64-2.55-1.75-6.89-.01-.59-.03-1.21-.05-1.85-.2-6.17-.31-9.57-1.17-11.08-1.11-1.93-2.7-2.92-4.1-3.79-1.49-.92-2.89-1.79-2.75-3.53.1-1.23.89-1.79,2.21-2.72.84-.59,1.99-1.4,3.56-2.75,2.13-1.83,3.3-2.84,4.44-4.46.9-1.28,1.24-2.18,1.79-3.67.36-.97.82-2.19,1.56-3.87.8-1.8,1.68-3.58,2.61-5.27l1.15-2.08.69,2.27c.71,2.36,1.19,4.8,1.43,7.25.16,1.61.14,2.5.12,3.22-.01.73-.03,1.26.15,2.3.58,3.45,1.85,6.32,3.79,8.52.71.81,1.36,1.34,1.88,1.78.86.72,1.67,1.39,1.57,2.59-.13,1.44-1.41,2.02-2.77,2.65-.9.41-2.02.93-3.17,1.79-3.19,2.4-4.5,5.93-5.37,8.26,0,.03-1,2.76-1.96,8.52l-.04.26-.16.2c-.9,1.12-2.17,2.39-3.33,2.39ZM163.98,8.1c-.47.94-.92,1.89-1.35,2.85-.72,1.63-1.16,2.81-1.52,3.76-.59,1.58-.98,2.63-2.03,4.12-1.28,1.82-2.59,2.95-4.77,4.82-1.64,1.41-2.84,2.26-3.71,2.87-1.09.77-1.35.98-1.37,1.24-.04.47.52.87,1.81,1.67,1.45.9,3.42,2.13,4.78,4.5,1.11,1.94,1.21,5.09,1.43,12,.02.65.04,1.28.05,1.87.05,1.89.1,3.99.33,4.83.36-.25.91-.77,1.36-1.3.97-5.8,1.97-8.51,2.01-8.62.95-2.56,2.38-6.42,6.04-9.17,1.31-.99,2.54-1.55,3.53-2,.78-.36,1.58-.73,1.61-1,.01-.15-.39-.49-.85-.88-.54-.45-1.28-1.07-2.1-1.99-2.19-2.48-3.63-5.68-4.26-9.51-.21-1.23-.19-1.9-.17-2.68.01-.7.03-1.49-.11-2.98-.14-1.48-.38-2.96-.71-4.42Z"/>
    </g>
  </g>
</svg>